<svg width="272" height="62" viewBox="0 0 272 62" fill="none" xmlns="http://www.w3.org/2000/svg">
<path d="M90.304 28.2237L85.3741 22.3864H79.1679V28.2237H75.2666V11.0513H87.115C91.3091 11.0513 94.4746 12.9892 94.4746 16.7188C94.4746 19.6385 92.5367 21.4535 89.6912 22.1151L94.9899 28.2237H90.304ZM86.8945 19.1467C88.9554 19.1467 90.4757 18.6568 90.4757 16.7422C90.4757 14.8277 88.9554 14.3378 86.8945 14.3378H79.1426V19.1467H86.8945Z" fill="#001F60"/>
<path d="M97 28.2237V11.0513H100.925V28.2237H97Z" fill="#001F60"/>
<path d="M107.131 11.0513L113.606 24.3224L120.058 11.0513H124.303L115.644 28.2237H111.498L102.839 11.0513H107.132H107.131Z" fill="#001F60"/>
<path d="M143.825 24.9372V28.2237H126.138V11.0513H143.58V14.3378H130.039V17.8703H141.347V21.1569H130.039V24.9352H143.825V24.9372Z" fill="#001F60"/>
<path d="M161.119 28.2237L156.19 22.3864H149.983V28.2237H146.082V11.0513H157.93C162.125 11.0513 165.29 12.9892 165.29 16.7188C165.29 19.6385 163.352 21.4535 160.507 22.1151L165.805 28.2237H161.119ZM157.71 19.1467C159.771 19.1467 161.291 18.6568 161.291 16.7422C161.291 14.8277 159.771 14.3378 157.71 14.3378H149.958V19.1467H157.71Z" fill="#001F60"/>
<path d="M171.252 14.4374V18.4109H182.585V21.797H171.252V28.2237H167.327V11.0513H184.695V14.4374H171.252Z" fill="#001F60"/>
<path d="M201.545 28.2237L196.615 22.3864H190.409V28.2237H186.51V11.0513H198.358C202.552 11.0513 205.718 12.9892 205.718 16.7188C205.718 19.6385 203.78 21.4535 200.934 22.1151L206.233 28.2237H201.547H201.545ZM198.136 19.1467C200.196 19.1467 201.717 18.6568 201.717 16.7422C201.717 14.8277 200.196 14.3378 198.136 14.3378H190.384V19.1467H198.136Z" fill="#001F60"/>
<path d="M207.164 19.6386C207.164 13.8988 211.383 10.5127 218.079 10.5127C224.775 10.5127 228.995 13.8988 228.995 19.6386C228.995 25.3783 224.775 28.7644 218.079 28.7644C211.383 28.7644 207.164 25.3783 207.164 19.6386ZM224.998 19.6386C224.998 15.9597 222.324 13.8988 218.079 13.8988C213.835 13.8988 211.161 15.9597 211.161 19.6386C211.161 23.3174 213.811 25.3783 218.079 25.3783C222.348 25.3783 224.998 23.3174 224.998 19.6386Z" fill="#001F60"/>
<path d="M250.484 11.0513V28.2237H247.049L234.734 15.8113V28.2237H230.933V11.0513H235.103L246.682 22.8255V11.0513H250.484Z" fill="#001F60"/>
<path d="M271.432 14.4374H263.926V28.2237H260.001V14.4374H252.544V11.0513H271.432V14.4374Z" fill="#001F60"/>
<path d="M90.6469 45.0118L94.2281 46.8034C92.6083 49.2312 89.2983 51.1946 84.8076 51.1946C78.3554 51.1946 74.1614 47.7851 74.1614 42.0687C74.1614 36.3524 78.3554 32.9429 84.9793 32.9429C89.2963 32.9429 92.6083 34.9296 94.1793 37.3087L90.5727 39.1003C89.3471 37.1877 87.4813 36.329 84.9305 36.329C80.8594 36.329 78.1603 38.2923 78.1603 42.0687C78.1603 45.8452 80.8594 47.8085 84.9305 47.8085C87.4813 47.8085 89.3705 46.9751 90.6469 45.0118Z" fill="#001F60"/>
<path d="M95.5281 42.0687C95.5281 36.329 99.7475 32.9429 106.444 32.9429C113.14 32.9429 117.359 36.329 117.359 42.0687C117.359 47.8085 113.14 51.1946 106.444 51.1946C99.7475 51.1946 95.5281 47.8085 95.5281 42.0687ZM113.362 42.0687C113.362 38.3879 110.688 36.329 106.444 36.329C102.199 36.329 99.527 38.3899 99.527 42.0687C99.527 45.7476 102.175 47.8085 106.444 47.8085C110.712 47.8085 113.362 45.7476 113.362 42.0687Z" fill="#001F60"/>
<path d="M142.455 33.4834V50.6559H138.53V38.7099L130.999 47.9099H130.802L123.271 38.7099V50.6559H119.469V33.4834H123.737L130.999 42.5605L138.259 33.4834H142.453H142.455Z" fill="#001F60"/>
<path d="M169.438 33.4834V50.6559H165.513V38.7099L157.981 47.9099H157.784L150.253 38.7099V50.6559H146.451V33.4834H150.719L157.981 42.5605L165.242 33.4834H169.436H169.438Z" fill="#001F60"/>
<path d="M172.332 42.0687C172.332 36.329 176.551 32.9429 183.247 32.9429C189.943 32.9429 194.163 36.329 194.163 42.0687C194.163 47.8085 189.943 51.1946 183.247 51.1946C176.551 51.1946 172.332 47.8085 172.332 42.0687ZM190.166 42.0687C190.166 38.3879 187.492 36.329 183.247 36.329C179.002 36.329 176.329 38.3899 176.329 42.0687C176.329 45.7476 178.979 47.8085 183.247 47.8085C187.516 47.8085 190.166 45.7476 190.166 42.0687Z" fill="#001F60"/>
<path d="M216.633 33.4834V50.6559H213.198L200.883 38.2434V50.6559H197.081V33.4834H201.252L212.831 45.2576V33.4834H216.633Z" fill="#001F60"/>
<path d="M238.859 45.4548C238.859 48.8409 235.645 51.1946 229.561 51.1946C225.219 51.1946 221.686 49.969 219.061 47.7363L221.318 45.0625C223.427 47.0005 226.15 47.908 229.659 47.908C233.168 47.908 234.909 47.2464 234.909 45.8237C234.909 44.4009 233.143 44.0087 229.192 43.6652C224.286 43.2475 219.723 42.1683 219.723 38.4894C219.723 34.8106 223.55 32.9448 228.849 32.9448C232.602 32.9448 235.84 33.8777 238.024 35.5698L235.865 38.2923C233.976 36.8442 231.646 36.2567 228.849 36.2314C226.519 36.206 223.673 36.6237 223.673 38.1928C223.673 39.6643 226.126 39.8126 229.536 40.082C235.006 40.523 238.857 41.6765 238.857 45.4548H238.859Z" fill="#001F60"/>
<path d="M24.0608 8.73838L24.1662 8.70326C24.5604 8.5725 24.9664 8.45149 25.3723 8.34025C26.2057 8.11191 27.0624 7.9265 27.9192 7.78598L28.0285 7.76842L26.8517 0.537598L26.7424 0.555162C25.6338 0.736664 24.5234 0.976714 23.4402 1.27336C22.9172 1.41583 22.3902 1.57392 21.8769 1.74371L21.7715 1.77884L24.0257 8.63299L24.0608 8.73838Z" fill="#001F60"/>
<path d="M35.9806 7.83496L36.0899 7.85448L37.337 0.74661L37.3565 0.637318L37.2472 0.617807C35.602 0.328964 33.9196 0.170881 32.249 0.147461H32.1378L32.0363 7.36072V7.47196H32.1476C33.4278 7.48953 34.7179 7.61053 35.9806 7.83302V7.83496Z" fill="#001F60"/>
<path d="M43.5898 10.5282L43.6874 10.5828L47.1848 4.27123L47.2375 4.17365L47.1399 4.12095C45.6761 3.31102 44.1422 2.61233 42.5769 2.04441L42.4716 2.00732L39.9715 8.89465L40.0769 8.93174C41.283 9.3689 42.4637 9.90756 43.5879 10.5301L43.5898 10.5282Z" fill="#001F60"/>
<path d="M47.0226 12.8296L47.1085 12.8999C48.1078 13.7059 49.0485 14.5998 49.9072 15.5522L49.9813 15.6342L55.4284 10.7336L55.3542 10.6516C54.2359 9.41037 53.0122 8.24915 51.7163 7.20112L51.6285 7.13086L47.0949 12.7438L47.0246 12.8296H47.0226Z" fill="#001F60"/>
<path d="M16.9429 12.5247L17.0307 12.4563C18.0514 11.6776 19.1405 10.977 20.2685 10.374L20.3661 10.3213L16.9039 3.86328L16.8063 3.91598C15.3348 4.70444 13.914 5.61976 12.5849 6.63266L12.4951 6.69901L16.8726 12.4368L16.939 12.5247H16.9429Z" fill="#001F60"/>
<path d="M11.5207 18.3469C12.2291 17.2793 13.0293 16.2567 13.8997 15.3121L13.9759 15.2301L8.6674 10.3432L8.58544 10.2671L8.51127 10.3491C7.38322 11.5747 6.343 12.9018 5.41597 14.2933L5.35547 14.385L11.4602 18.4386L11.5207 18.3469Z" fill="#001F60"/>
<path d="M7.52268 33.7451C7.46999 33.0991 7.44462 32.4472 7.44462 31.8032C7.44462 31.1592 7.46999 30.5229 7.52073 29.8925L7.53049 29.7813L0.225502 29.2017L0.215746 29.3129C0.149391 30.1443 0.116211 30.9816 0.116211 31.8052C0.116211 32.6287 0.15134 33.4914 0.219648 34.3345L0.229409 34.4457L7.53244 33.8583L7.52268 33.747V33.7451Z" fill="#001F60"/>
<path d="M8.22407 25.7161C8.54805 24.4768 8.97155 23.2512 9.48678 22.0704L9.53167 21.969L2.81998 19.0317L2.77509 19.1332C2.10373 20.6653 1.55142 22.2598 1.13182 23.8718L1.10449 23.9791L8.1948 25.8234L8.22212 25.7161H8.22407Z" fill="#001F60"/>
<path d="M61.4668 12.3379V12.1544L48.4201 19.0535C44.5012 14.028 38.375 11.0322 32.0146 11.0322C20.5507 11.0322 11.2238 20.3591 11.2238 31.8211C11.2238 34.3758 11.6863 36.8758 12.5938 39.251C9.83811 39.1475 7.37319 38.8997 5.0605 38.4918L1.15137 37.8029L2.45311 41.5539C6.69987 53.7848 18.2594 62.0032 31.2125 62.0032C46.5543 62.0032 59.5386 50.5373 61.418 35.3262L61.5234 32.9042L61.4668 12.3398V12.3379ZM56.3437 37.313C55.8695 39.4012 55.1318 41.4251 54.152 43.3319C44.7334 43.4958 39.7236 45.1586 34.8757 46.7667C29.901 48.4178 25.2034 49.9772 15.5506 49.9772C14.9826 49.9772 13.8448 49.9713 13.1637 49.9596C11.2648 48.1017 9.67612 45.9783 8.44073 43.648C10.6539 43.8627 12.9822 43.9661 15.5506 43.9661C25.9606 43.9661 31.2417 42.2116 36.3492 40.5156C41.3239 38.8646 46.0215 37.3052 55.6743 37.3052C55.8734 37.3052 56.1017 37.3071 56.3437 37.3111V37.313ZM15.8901 31.8211C15.8901 22.9294 23.1249 15.6947 32.0165 15.6947C36.7024 15.6947 41.1424 17.7283 44.2162 21.2764L29.8893 28.8526V37.637C26.1089 38.6499 22.3462 39.1553 17.7149 39.2783C16.5205 36.991 15.8901 34.4148 15.8901 31.823V31.8211ZM34.5517 36.2025V31.663L56.8258 19.8849L56.8609 32.6583C56.4374 32.6505 56.0217 32.6447 55.6763 32.6447C45.2701 32.6447 39.989 34.3972 34.8796 36.0932L34.5537 36.2025H34.5517ZM50.9631 48.1212C46.0391 53.9819 38.8551 57.3368 31.2125 57.3368C27.1765 57.3368 23.1541 56.3727 19.5534 54.546C27.4048 54.1595 31.9502 52.6509 36.3453 51.1911C40.4554 49.8269 44.3372 48.5388 50.9611 48.1212H50.9631Z" fill="#001F60"/>
<path d="M242.848 34.0868H241.667V36.4287H240.652V34.0868H239.472V33.2749H242.848V34.0868ZM247.405 33.2749V36.4287H246.427V34.5279L245.331 35.9935H245.303L244.224 34.5279V36.4287H243.236V33.2749H244.288L245.321 34.7035L246.373 33.2749H247.405Z" fill="#001F60"/>
</svg>
