<?xml version="1.0" encoding="UTF-8" standalone="no"?>
<!-- Created with Inkscape (http://www.inkscape.org/) -->

<svg
   version="1.1"
   id="svg2"
   width="617.69336"
   height="140.13333"
   viewBox="0 0 617.69336 140.13333"
   sodipodi:docname="UCHealth_UCH186C-Black_circleR.eps"
   xmlns:inkscape="http://www.inkscape.org/namespaces/inkscape"
   xmlns:sodipodi="http://sodipodi.sourceforge.net/DTD/sodipodi-0.dtd"
   xmlns="http://www.w3.org/2000/svg"
   xmlns:svg="http://www.w3.org/2000/svg">
  <defs
     id="defs6" />
  <sodipodi:namedview
     id="namedview4"
     pagecolor="#ffffff"
     bordercolor="#000000"
     borderopacity="0.25"
     inkscape:showpageshadow="2"
     inkscape:pageopacity="0.0"
     inkscape:pagecheckerboard="0"
     inkscape:deskcolor="#d1d1d1" />
  <g
     id="g8"
     inkscape:groupmode="layer"
     inkscape:label="ink_ext_XXXXXX"
     transform="matrix(1.3333333,0,0,-1.3333333,0,140.13333)">
    <g
       id="g10"
       transform="scale(0.1)">
      <path
         d="m 2546.51,472.641 c 0,89.894 -38.15,166.015 -129.19,166.015 -110.66,0 -154.43,-92.226 -157.91,-166.015 z M 2252.6,403.41 c -1.23,-115.262 80.53,-221.265 194.81,-221.265 52.95,0 117.6,19.668 157.85,49.55 l 29.97,-56.465 c -59.95,-42.667 -131.45,-66.875 -191.33,-66.875 -179.86,0 -298.63,110.633 -298.63,313.524 0,199.484 142.93,290.559 273.27,290.559 175.18,0 233.97,-157.942 222.48,-309.028 H 2252.6"
         style="fill:#231f20;fill-opacity:1;fill-rule:nonzero;stroke:none"
         id="path12" />
      <path
         d="m 3711.91,698.551 h 150.95 v -59.895 h -150.95 v -326.23 c 0,-80.731 16.13,-129.121 79.42,-129.121 38.09,0 60.09,9.23 79.64,19.601 l 25.32,-57.636 c -35.69,-23.125 -78.39,-36.915 -117.58,-36.915 -115.21,0 -170.6,66.875 -170.6,184.454 v 345.847 h -80.64 v 59.895 h 80.64 V 836.93 l 103.8,34.531 v -172.91"
         style="fill:#231f20;fill-opacity:1;fill-rule:nonzero;stroke:none"
         id="path14" />
      <path
         d="m 3321.28,969.41 v -44.101 h 47.07 V 122.145 h 103.82 V 969.41 h -150.89"
         style="fill:#231f20;fill-opacity:1;fill-rule:nonzero;stroke:none"
         id="path16" />
      <path
         d="m 4222.55,712.438 c -60.01,0 -143.02,-27.676 -197.13,-85.313 V 969.41 H 3874.6 v -44.101 h 47.21 l 1.05,-803.164 h 103.63 v 346.972 c 0,110.664 74.98,167.207 156.88,167.207 93.32,0 139.43,-56.543 139.43,-164.844 V 122.145 h 103.81 v 371.257 c 0,145.254 -71.55,219.036 -204.06,219.036"
         style="fill:#231f20;fill-opacity:1;fill-rule:nonzero;stroke:none"
         id="path18" />
      <path
         d="m 1910.39,929.086 v -44.168 h 38.91 V 604.086 h -394.24 v 325 h -150.78 v -44.168 h 38.99 V 122.145 h 111.79 v 401.21 h 394.24 v -401.21 h 111.84 v 806.941 h -150.75"
         style="fill:#231f20;fill-opacity:1;fill-rule:nonzero;stroke:none"
         id="path20" />
      <path
         d="m 3155.56,244.352 c -59.18,-31.153 -108.15,-51.329 -158.59,-51.329 -109.18,0 -182.84,80.215 -182.84,215.254 0,137.508 81.11,226.024 201.34,226.024 42.87,0 89.55,-12.473 140.09,-37.274 V 244.352 m 0,438.574 c -54.07,17.871 -103.23,27.715 -150.98,27.715 -176.88,0 -289.85,-121.114 -289.85,-299.914 0,-175.067 109.34,-292.735 262.78,-292.735 60.17,0 120.23,20.168 185.39,57.727 3.55,-20.117 0.43,-25.02 7.86,-43.52 h 81.59 v 565.188 l -94.81,-0.242 -1.98,-14.219"
         style="fill:#231f20;fill-opacity:1;fill-rule:nonzero;stroke:none"
         id="path22" />
      <path
         d="m 581.66,1050.72 v -58.81 h 201.387 v 58.81 H 581.66"
         style="fill:#e51636;fill-opacity:1;fill-rule:nonzero;stroke:none"
         id="path24" />
      <path
         d="M 766.152,58.6289 C 574.305,107.445 432.883,270.758 432.883,480.055 c 0,160.351 93.797,290 232.195,362.73 v 78.86 C 466.074,856.422 323.379,688.168 323.379,480.055 323.379,377.152 350.137,296.742 396.914,224.73 273.828,246.383 220.828,332.191 220.828,480.055 V 1051 H 0 V 992.191 H 105.516 V 480.055 c 0,-205.246 133.8,-311.778 337.375,-315.196 C 520.742,78.3047 630.938,17.9102 756.141,0 l 10.011,58.6289"
         style="fill:#e51636;fill-opacity:1;fill-rule:nonzero;stroke:none"
         id="path26" />
      <path
         d="m 665.078,480.055 c 0,-80.688 8.008,-144.375 58.887,-200.528 46.23,56.875 59.316,110.164 59.316,200.528 l -0.468,464.383 c 21.523,2.648 43.437,3.933 65.664,3.933 90.664,0 182.033,-9.937 290.763,-64.586 l 7.42,44.063 60.29,-11.739 -35.52,-206.66 -50.63,9.903 c -4.39,92.89 -86.11,173.906 -222.265,173.906 V 480.055 C 898.535,359.586 857.43,282.73 776.121,222.746 872.344,132.719 1029.8,141.867 1107.4,181.508 l 14.49,-21.649 c -57.52,-39.16 -136.253,-55.785 -204.577,-55.785 -198.915,0 -361.875,164.867 -361.875,375.981 0,100.894 42.121,182.07 109.64,247.285 0,0 0,-204.336 0,-247.285"
         style="fill:#e51636;fill-opacity:1;fill-rule:nonzero;stroke:none"
         id="path28" />
      <path
         d="m 4568,179.547 h 9.82 c 2.12,0 4.19,0.066 6.21,0.215 2.02,0.144 3.8,0.547 5.34,1.23 1.55,0.664 2.8,1.727 3.76,3.172 0.96,1.445 1.45,3.418 1.45,5.93 0,2.109 -0.43,3.828 -1.3,5.125 -0.87,1.301 -1.97,2.285 -3.32,2.961 -1.36,0.672 -2.85,1.101 -4.48,1.297 -1.64,0.195 -3.28,0.293 -4.91,0.293 H 4568 Z m -9.54,28.027 h 23.7 c 14.64,0 21.95,-5.976 21.95,-17.922 0,-5.683 -1.58,-9.843 -4.76,-12.5 -3.18,-2.644 -7.13,-4.207 -11.85,-4.687 l 18.06,-27.742 h -10.26 l -17.05,27.019 H 4568 v -27.019 h -9.54 z m -23.69,-31.504 c 0,-6.543 1.15,-12.617 3.46,-18.203 2.32,-5.586 5.44,-10.422 9.4,-14.523 3.94,-4.09 8.61,-7.313 14.01,-9.676 5.39,-2.363 11.17,-3.535 17.33,-3.535 6.17,0 11.93,1.172 17.27,3.535 5.35,2.363 10.02,5.586 14.01,9.676 4,4.101 7.16,8.937 9.47,14.523 2.31,5.586 3.46,11.66 3.46,18.203 0,6.453 -1.15,12.5 -3.46,18.133 -2.31,5.637 -5.47,10.5 -9.47,14.602 -3.99,4.09 -8.66,7.312 -14.01,9.675 -5.34,2.356 -11.1,3.536 -17.27,3.536 -6.16,0 -11.94,-1.18 -17.33,-3.536 -5.4,-2.363 -10.07,-5.585 -14.01,-9.675 -3.96,-4.102 -7.08,-8.965 -9.4,-14.602 -2.31,-5.633 -3.46,-11.68 -3.46,-18.133 z m -9.55,0 c 0,7.618 1.43,14.715 4.27,21.317 2.84,6.593 6.72,12.273 11.63,17.051 4.91,4.765 10.62,8.527 17.12,11.269 6.51,2.746 13.41,4.113 20.73,4.113 7.33,0 14.23,-1.367 20.74,-4.113 6.5,-2.742 12.2,-6.504 17.12,-11.269 4.91,-4.778 8.78,-10.458 11.63,-17.051 2.84,-6.602 4.26,-13.699 4.26,-21.317 0,-7.707 -1.42,-14.836 -4.26,-21.379 -2.85,-6.55 -6.72,-12.207 -11.63,-16.98 -4.92,-4.766 -10.62,-8.527 -17.12,-11.27 -6.51,-2.746 -13.41,-4.113 -20.74,-4.113 -7.32,0 -14.22,1.367 -20.73,4.113 -6.5,2.743 -12.21,6.504 -17.12,11.27 -4.91,4.773 -8.79,10.43 -11.63,16.98 -2.84,6.543 -4.27,13.672 -4.27,21.379"
         style="fill:#231f20;fill-opacity:1;fill-rule:nonzero;stroke:none"
         id="path30" />
    </g>
  </g>
</svg>
